<svg width="172" height="24" viewBox="0 0 172 24" fill="none" xmlns="http://www.w3.org/2000/svg">
<path d="M2.177 11.995H13.926V13.421H2.177V11.995ZM2.363 23H0.782V1.3H15.29V2.726H2.363V23ZM15.6521 23L25.6341 1.3H27.2151L37.1971 23H35.4921L26.0681 2.292H26.7501L17.3571 23H15.6521ZM19.3101 16.893L19.8371 15.56H32.8261L33.3531 16.893H19.3101ZM46.8405 23.155C45.2285 23.155 43.6992 22.8863 42.2525 22.349C40.8265 21.791 39.7208 21.078 38.9355 20.21L39.6485 19.032C40.3925 19.7967 41.4052 20.4477 42.6865 20.985C43.9885 21.5017 45.3628 21.76 46.8095 21.76C48.2562 21.76 49.4342 21.574 50.3435 21.202C51.2735 20.8093 51.9555 20.2927 52.3895 19.652C52.8442 19.0113 53.0715 18.2983 53.0715 17.513C53.0715 16.583 52.8235 15.839 52.3275 15.281C51.8315 14.723 51.1805 14.2787 50.3745 13.948C49.5685 13.6173 48.6902 13.3383 47.7395 13.111C46.7888 12.8837 45.8278 12.646 44.8565 12.398C43.8852 12.1293 42.9965 11.7883 42.1905 11.375C41.3845 10.9617 40.7335 10.4037 40.2375 9.701C39.7622 8.97767 39.5245 8.04767 39.5245 6.911C39.5245 5.87767 39.7932 4.927 40.3305 4.059C40.8678 3.191 41.7048 2.48833 42.8415 1.951C43.9782 1.41367 45.4352 1.145 47.2125 1.145C48.4112 1.145 49.5892 1.32067 50.7465 1.672C51.9245 2.02333 52.9268 2.49867 53.7535 3.098L53.1645 4.369C52.2552 3.749 51.2735 3.29433 50.2195 3.005C49.1862 2.695 48.1838 2.54 47.2125 2.54C45.8278 2.54 44.6808 2.73633 43.7715 3.129C42.8622 3.52167 42.1905 4.04867 41.7565 4.71C41.3225 5.35067 41.1055 6.074 41.1055 6.88C41.1055 7.81 41.3432 8.554 41.8185 9.112C42.3145 9.67 42.9655 10.1143 43.7715 10.445C44.5775 10.7757 45.4662 11.0547 46.4375 11.282C47.4088 11.5093 48.3698 11.7573 49.3205 12.026C50.2712 12.274 51.1495 12.6047 51.9555 13.018C52.7615 13.4313 53.4125 13.9893 53.9085 14.692C54.4045 15.3947 54.6525 16.304 54.6525 17.42C54.6525 18.4327 54.3735 19.3833 53.8155 20.272C53.2575 21.14 52.3998 21.8427 51.2425 22.38C50.1058 22.8967 48.6385 23.155 46.8405 23.155ZM63.3131 23V5.392H56.3691V1.3H75.2791V5.392H68.3351V23H63.3131ZM77.9812 23V1.3H83.0032V23H77.9812ZM98.5381 23.372C96.8641 23.372 95.3037 23.1033 93.8571 22.566C92.4311 22.008 91.1911 21.2227 90.1371 20.21C89.0831 19.1973 88.2564 18.009 87.6571 16.645C87.0784 15.281 86.7891 13.7827 86.7891 12.15C86.7891 10.5173 87.0784 9.019 87.6571 7.655C88.2564 6.291 89.0831 5.10267 90.1371 4.09C91.2117 3.07733 92.4621 2.30233 93.8881 1.765C95.3141 1.207 96.8744 0.928 98.5691 0.928C100.45 0.928 102.144 1.25867 103.653 1.92C105.182 2.56067 106.464 3.51133 107.497 4.772L104.273 7.748C103.529 6.90067 102.702 6.27033 101.793 5.857C100.884 5.423 99.8917 5.206 98.8171 5.206C97.8044 5.206 96.8744 5.37133 96.0271 5.702C95.1797 6.03267 94.4461 6.508 93.8261 7.128C93.2061 7.748 92.7204 8.48167 92.3691 9.329C92.0384 10.1763 91.8731 11.1167 91.8731 12.15C91.8731 13.1833 92.0384 14.1237 92.3691 14.971C92.7204 15.8183 93.2061 16.552 93.8261 17.172C94.4461 17.792 95.1797 18.2673 96.0271 18.598C96.8744 18.9287 97.8044 19.094 98.8171 19.094C99.8917 19.094 100.884 18.8873 101.793 18.474C102.702 18.04 103.529 17.389 104.273 16.521L107.497 19.497C106.464 20.7577 105.182 21.7187 103.653 22.38C102.144 23.0413 100.439 23.372 98.5381 23.372ZM115.383 18.04L115.104 12.243L125.489 1.3H131.069L121.707 11.375L118.917 14.351L115.383 18.04ZM110.888 23V1.3H115.879V23H110.888ZM125.737 23L118.018 13.545L121.304 9.98L131.596 23H125.737ZM138.455 10.042H148.902V13.948H138.455V10.042ZM138.827 18.97H150.638V23H133.836V1.3H150.235V5.33H138.827V18.97ZM159.129 23V5.392H152.185V1.3H171.095V5.392H164.151V23H159.129Z" fill="white"/>
</svg>
