<svg width="174" height="24" viewBox="0 0 174 24" fill="none" xmlns="http://www.w3.org/2000/svg">
<path d="M7.936 23V2.726H0.124V1.3H17.329V2.726H9.517V23H7.936ZM21.2498 23V1.3H29.0308C30.8494 1.3 32.4098 1.58933 33.7118 2.168C35.0138 2.74667 36.0161 3.58367 36.7188 4.679C37.4214 5.75367 37.7728 7.066 37.7728 8.616C37.7728 10.1247 37.4214 11.4267 36.7188 12.522C36.0161 13.5967 35.0138 14.4337 33.7118 15.033C32.4098 15.6117 30.8494 15.901 29.0308 15.901H22.1178L22.8308 15.157V23H21.2498ZM36.3158 23L30.6738 15.126H32.4718L38.1138 23H36.3158ZM22.8308 15.25L22.1178 14.506H29.0308C31.3661 14.506 33.1331 13.9893 34.3318 12.956C35.5511 11.9227 36.1608 10.476 36.1608 8.616C36.1608 6.73533 35.5511 5.28867 34.3318 4.276C33.1331 3.24267 31.3661 2.726 29.0308 2.726H22.1178L22.8308 1.951V15.25ZM39.9343 23L49.9163 1.3H51.4973L61.4793 23H59.7743L50.3503 2.292H51.0323L41.6393 23H39.9343ZM43.5923 16.893L44.1193 15.56H57.1083L57.6353 16.893H43.5923ZM65.4187 23V1.3H66.7517L82.2207 21.047H81.5077V1.3H83.0887V23H81.7867L66.2867 3.253H66.9997V23H65.4187ZM96.3708 23.155C94.7588 23.155 93.2294 22.8863 91.7828 22.349C90.3568 21.791 89.2511 21.078 88.4658 20.21L89.1788 19.032C89.9228 19.7967 90.9354 20.4477 92.2168 20.985C93.5188 21.5017 94.8931 21.76 96.3398 21.76C97.7864 21.76 98.9644 21.574 99.8738 21.202C100.804 20.8093 101.486 20.2927 101.92 19.652C102.374 19.0113 102.602 18.2983 102.602 17.513C102.602 16.583 102.354 15.839 101.858 15.281C101.362 14.723 100.711 14.2787 99.9048 13.948C99.0988 13.6173 98.2204 13.3383 97.2698 13.111C96.3191 12.8837 95.3581 12.646 94.3868 12.398C93.4154 12.1293 92.5268 11.7883 91.7208 11.375C90.9148 10.9617 90.2638 10.4037 89.7678 9.701C89.2924 8.97767 89.0548 8.04767 89.0548 6.911C89.0548 5.87767 89.3234 4.927 89.8608 4.059C90.3981 3.191 91.2351 2.48833 92.3718 1.951C93.5084 1.41367 94.9654 1.145 96.7428 1.145C97.9414 1.145 99.1194 1.32067 100.277 1.672C101.455 2.02333 102.457 2.49867 103.284 3.098L102.695 4.369C101.785 3.749 100.804 3.29433 99.7498 3.005C98.7164 2.695 97.7141 2.54 96.7428 2.54C95.3581 2.54 94.2111 2.73633 93.3018 3.129C92.3924 3.52167 91.7208 4.04867 91.2868 4.71C90.8528 5.35067 90.6358 6.074 90.6358 6.88C90.6358 7.81 90.8734 8.554 91.3488 9.112C91.8448 9.67 92.4958 10.1143 93.3018 10.445C94.1078 10.7757 94.9964 11.0547 95.9678 11.282C96.9391 11.5093 97.9001 11.7573 98.8508 12.026C99.8014 12.274 100.68 12.6047 101.486 13.018C102.292 13.4313 102.943 13.9893 103.439 14.692C103.935 15.3947 104.183 16.304 104.183 17.42C104.183 18.4327 103.904 19.3833 103.346 20.272C102.788 21.14 101.93 21.8427 100.773 22.38C99.6361 22.8967 98.1688 23.155 96.3708 23.155ZM118.733 23.372C117.059 23.372 115.499 23.1033 114.052 22.566C112.626 22.008 111.386 21.2227 110.332 20.21C109.278 19.1973 108.452 18.009 107.852 16.645C107.274 15.281 106.984 13.7827 106.984 12.15C106.984 10.5173 107.274 9.019 107.852 7.655C108.452 6.291 109.278 5.10267 110.332 4.09C111.407 3.07733 112.657 2.30233 114.083 1.765C115.509 1.207 117.07 0.928 118.764 0.928C120.645 0.928 122.34 1.25867 123.848 1.92C125.378 2.56067 126.659 3.51133 127.692 4.772L124.468 7.748C123.724 6.90067 122.898 6.27033 121.988 5.857C121.079 5.423 120.087 5.206 119.012 5.206C118 5.206 117.07 5.37133 116.222 5.702C115.375 6.03267 114.641 6.508 114.021 7.128C113.401 7.748 112.916 8.48167 112.564 9.329C112.234 10.1763 112.068 11.1167 112.068 12.15C112.068 13.1833 112.234 14.1237 112.564 14.971C112.916 15.8183 113.401 16.552 114.021 17.172C114.641 17.792 115.375 18.2673 116.222 18.598C117.07 18.9287 118 19.094 119.012 19.094C120.087 19.094 121.079 18.8873 121.988 18.474C122.898 18.04 123.724 17.389 124.468 16.521L127.692 19.497C126.659 20.7577 125.378 21.7187 123.848 22.38C122.34 23.0413 120.635 23.372 118.733 23.372ZM127.838 23L137.51 1.3H142.47L152.173 23H146.903L138.967 3.842H140.951L132.984 23H127.838ZM132.674 18.35L134.007 14.537H145.167L146.531 18.35H132.674ZM154.425 23V1.3H163.818C165.76 1.3 167.434 1.62033 168.84 2.261C170.245 2.881 171.33 3.78 172.095 4.958C172.859 6.136 173.242 7.54133 173.242 9.174C173.242 10.786 172.859 12.181 172.095 13.359C171.33 14.5163 170.245 15.405 168.84 16.025C167.434 16.645 165.76 16.955 163.818 16.955H157.215L159.447 14.754V23H154.425ZM168.22 23L162.795 15.126H168.158L173.645 23H168.22ZM159.447 15.312L157.215 12.956H163.539C165.089 12.956 166.246 12.6253 167.011 11.964C167.775 11.282 168.158 10.352 168.158 9.174C168.158 7.97533 167.775 7.04533 167.011 6.384C166.246 5.72267 165.089 5.392 163.539 5.392H157.215L159.447 3.005V15.312Z" fill="white"/>
</svg>
