<svg width="200" height="200" viewBox="0 0 200 200" fill="none" xmlns="http://www.w3.org/2000/svg">
<path d="M8.69556 8.69565V17.3913V26.087V34.7826V43.4783V52.1739V60.8696V69.5652H17.3912H26.0869H34.7825H43.4782H52.1738H60.8695H69.5651V60.8696V52.1739V43.4783V34.7826V26.087V17.3913V8.69565H60.8695H52.1738H43.4782H34.7825H26.0869H17.3912H8.69556ZM78.2608 8.69565V17.3913V26.087H86.9564V17.3913H95.6521V8.69565H86.9564H78.2608ZM95.6521 17.3913V26.087H104.348V17.3913H95.6521ZM104.348 26.087V34.7826H113.043H121.739V26.087V17.3913V8.69565H113.043V17.3913V26.087H104.348ZM104.348 34.7826H95.6521H86.9564H78.2608V43.4783H86.9564H95.6521V52.1739H86.9564V60.8696H95.6521V69.5652H104.348V60.8696H113.043V69.5652H104.348V78.2609H95.6521V86.9565H104.348H113.043V95.6522H121.739V86.9565V78.2609V69.5652V60.8696V52.1739H113.043V43.4783H104.348V34.7826ZM113.043 95.6522H104.348V104.348H95.6521V113.043V121.739H104.348V130.435V139.13H95.6521H86.9564V130.435H95.6521V121.739H86.9564V113.043V104.348H78.2608V95.6522H86.9564V104.348H95.6521V95.6522V86.9565H86.9564H78.2608V78.2609H69.5651H60.8695H52.1738V86.9565H43.4782V95.6522H34.7825V86.9565H43.4782V78.2609H34.7825H26.0869V86.9565H17.3912V95.6522V104.348V113.043H26.0869V104.348H34.7825H43.4782H52.1738V95.6522H60.8695V86.9565H69.5651V95.6522H60.8695V104.348H69.5651V113.043H60.8695V121.739H69.5651H78.2608V130.435V139.13V147.826H86.9564V156.522H95.6521H104.348H113.043V165.217H104.348H95.6521H86.9564V156.522H78.2608V165.217V173.913H86.9564V182.609H78.2608V191.304H86.9564H95.6521V182.609H104.348V191.304H113.043H121.739H130.435H139.13V182.609H147.826V191.304H156.522H165.217H173.913V182.609H165.217H156.522V173.913H147.826V165.217H139.13V173.913H130.435H121.739V182.609H113.043V173.913H121.739V165.217V156.522V147.826H130.435V139.13H121.739H113.043V130.435H121.739V121.739V113.043V104.348H113.043V95.6522ZM139.13 165.217V156.522H130.435V165.217H139.13ZM156.522 173.913H165.217H173.913V165.217H165.217H156.522V173.913ZM173.913 165.217H182.609V156.522V147.826V139.13V130.435H173.913H165.217H156.522V121.739H147.826V130.435H139.13V139.13V147.826H147.826V139.13H156.522V147.826V156.522H165.217H173.913V165.217ZM147.826 121.739V113.043H139.13H130.435V121.739H139.13H147.826ZM156.522 121.739H165.217V113.043V104.348V95.6522H173.913V104.348H182.609V113.043H191.304V104.348V95.6522H182.609V86.9565H191.304V78.2609H182.609H173.913V86.9565H165.217V78.2609H156.522V86.9565H147.826V95.6522H156.522V104.348V113.043V121.739ZM147.826 95.6522H139.13V104.348H147.826V95.6522ZM182.609 113.043H173.913V121.739H182.609V113.043ZM60.8695 113.043V104.348H52.1738V113.043H60.8695ZM52.1738 113.043H43.4782H34.7825H26.0869V121.739H34.7825H43.4782H52.1738V113.043ZM17.3912 113.043H8.69556V121.739H17.3912V113.043ZM17.3912 86.9565V78.2609H8.69556V86.9565H17.3912ZM78.2608 78.2609H86.9564V69.5652V60.8696H78.2608V69.5652V78.2609ZM130.435 8.69565V17.3913V26.087V34.7826V43.4783V52.1739V60.8696V69.5652H139.13H147.826H156.522H165.217H173.913H182.609H191.304V60.8696V52.1739V43.4783V34.7826V26.087V17.3913V8.69565H182.609H173.913H165.217H156.522H147.826H139.13H130.435ZM17.3912 17.3913H26.0869H34.7825H43.4782H52.1738H60.8695V26.087V34.7826V43.4783V52.1739V60.8696H52.1738H43.4782H34.7825H26.0869H17.3912V52.1739V43.4783V34.7826V26.087V17.3913ZM139.13 17.3913H147.826H156.522H165.217H173.913H182.609V26.087V34.7826V43.4783V52.1739V60.8696H173.913H165.217H156.522H147.826H139.13V52.1739V43.4783V34.7826V26.087V17.3913ZM26.0869 26.087V34.7826V43.4783V52.1739H34.7825H43.4782H52.1738V43.4783V34.7826V26.087H43.4782H34.7825H26.0869ZM147.826 26.087V34.7826V43.4783V52.1739H156.522H165.217H173.913V43.4783V34.7826V26.087H165.217H156.522H147.826ZM130.435 78.2609V86.9565H139.13V78.2609H130.435ZM8.69556 130.435V139.13V147.826V156.522V165.217V173.913V182.609V191.304H17.3912H26.0869H34.7825H43.4782H52.1738H60.8695H69.5651V182.609V173.913V165.217V156.522V147.826V139.13V130.435H60.8695H52.1738H43.4782H34.7825H26.0869H17.3912H8.69556ZM17.3912 139.13H26.0869H34.7825H43.4782H52.1738H60.8695V147.826V156.522V165.217V173.913V182.609H52.1738H43.4782H34.7825H26.0869H17.3912V173.913V165.217V156.522V147.826V139.13ZM26.0869 147.826V156.522V165.217V173.913H34.7825H43.4782H52.1738V165.217V156.522V147.826H43.4782H34.7825H26.0869ZM182.609 173.913V182.609H191.304V173.913H182.609Z" fill="white"/>
</svg>
