<svg width="50" height="50" viewBox="0 0 50 50" fill="none" xmlns="http://www.w3.org/2000/svg">
<path d="M22.2413 16.9754C22.226 16.9252 22.2245 16.8687 22.2376 16.8165C22.2496 16.7685 22.2712 16.7343 22.2916 16.7136L22.4887 16.5499C23.1901 16.0205 23.9807 15.6809 24.8021 15.5504C26.2476 15.3313 28.173 15.7533 30.1174 18.3042L30.2675 18.5011H30.5151H31.8083C31.813 18.5011 31.8197 18.502 31.8287 18.5063C31.838 18.5108 31.8513 18.5195 31.8656 18.536L31.8659 18.5364L33.4436 20.3467C33.4437 20.3468 33.4437 20.3468 33.4437 20.3468C33.4738 20.3814 33.5 20.4412 33.5 20.5153C33.5 20.5895 33.4737 20.6493 33.4436 20.6839C33.4436 20.6839 33.4436 20.6839 33.4436 20.6839L30.2888 24.3124C30.2745 24.3288 30.2613 24.3376 30.252 24.342L30.4668 24.7935L30.252 24.342C30.2429 24.3463 30.2363 24.3472 30.2316 24.3472C30.2269 24.3472 30.2203 24.3463 30.2113 24.342L29.9964 24.7935L30.2113 24.342C30.202 24.3376 30.1888 24.3288 30.1745 24.3125C30.1745 24.3124 30.1745 24.3124 30.1744 24.3124L28.5964 22.4975L28.5963 22.4974C28.5663 22.4628 28.54 22.4031 28.5399 22.3289C28.5399 22.3289 28.5399 22.3289 28.5399 22.3288V21.4299V20.0374L27.6541 21.1118L17.3622 33.5958L17.3434 33.6186L17.3274 33.6435C17.3119 33.6676 17.2956 33.682 17.2833 33.6898C17.2713 33.6975 17.2624 33.6994 17.2571 33.6999C17.252 33.7003 17.2453 33.6998 17.2363 33.696C17.227 33.692 17.2127 33.6833 17.1971 33.6654C17.1971 33.6654 17.197 33.6653 17.197 33.6653L15.3565 31.5551L22.2413 16.9754ZM22.2413 16.9754C22.2567 17.0253 22.2819 17.0574 22.3025 17.0742L21.9875 17.4624L22.3025 17.0742C22.322 17.09 22.3359 17.0917 22.342 17.0917H22.3424C24.1036 17.0917 25.4598 17.6709 26.4479 18.3625L26.9167 18.6906L26.5287 19.1112L15.3434 31.2346C15.3179 31.2721 15.2987 31.3277 15.3001 31.3929C15.3016 31.4645 15.3274 31.5216 15.3564 31.555L22.2413 16.9754Z" stroke="white" stroke-opacity="0.5"/>
<circle cx="25" cy="25" r="24.5" stroke="white" stroke-opacity="0.25"/>
</svg>
