<svg width="22" height="26" viewBox="0 0 22 26" fill="none" xmlns="http://www.w3.org/2000/svg">
<path d="M21.3096 3.23817L18.7618 0.690397C18.3198 0.248346 17.7202 3.26895e-06 17.0951 0L8.64286 0C7.34103 0 6.28571 1.05531 6.28571 2.35714V4.71428H2.35714C1.05531 4.71428 0 5.7696 0 7.07143V22.7857C0 24.0875 1.05531 25.1429 2.35714 25.1429H13.3571C14.659 25.1429 15.7143 24.0875 15.7143 22.7857V20.4286H19.6429C20.9447 20.4286 22 19.3733 22 18.0714V4.90492C22 4.27977 21.7517 3.68022 21.3096 3.23817V3.23817ZM13.0625 22.7857H2.65179C2.57364 22.7857 2.4987 22.7547 2.44344 22.6994C2.38819 22.6442 2.35714 22.5692 2.35714 22.4911V7.36607C2.35714 7.28793 2.38819 7.21298 2.44344 7.15773C2.4987 7.10247 2.57364 7.07143 2.65179 7.07143H6.28571V18.0714C6.28571 19.3733 7.34103 20.4286 8.64286 20.4286H13.3571V22.4911C13.3571 22.5692 13.3261 22.6442 13.2708 22.6994C13.2156 22.7547 13.1406 22.7857 13.0625 22.7857ZM19.3482 18.0714H8.9375C8.85936 18.0714 8.78441 18.0404 8.72916 17.9851C8.6739 17.9299 8.64286 17.8549 8.64286 17.7768V2.65179C8.64286 2.57364 8.6739 2.4987 8.72916 2.44344C8.78441 2.38819 8.85936 2.35714 8.9375 2.35714H14.1429V6.67857C14.1429 7.32949 14.6705 7.85714 15.3214 7.85714H19.6429V17.7768C19.6429 17.8549 19.6118 17.9299 19.5566 17.9851C19.5013 18.0404 19.4264 18.0714 19.3482 18.0714V18.0714ZM19.6429 5.5H16.5V2.35714H16.973C17.0511 2.35714 17.1261 2.38818 17.1814 2.44342L19.5566 4.81864C19.5839 4.846 19.6056 4.87849 19.6204 4.91424C19.6352 4.94999 19.6429 4.9883 19.6429 5.027V5.5Z" fill="#BB86FC"/>
</svg>
