<svg width="12" height="21" viewBox="0 0 12 21" fill="none" xmlns="http://www.w3.org/2000/svg">
<path d="M1.03109 2.42415C0.941651 2.33282 0.870981 2.22466 0.822856 2.10599C0.774711 1.98727 0.75 1.86019 0.75 1.73199C0.75 1.60378 0.774711 1.47671 0.822856 1.35799C0.870964 1.23936 0.941601 1.13123 1.031 1.03993C1.12024 0.948446 1.22654 0.875544 1.34398 0.82568C1.46153 0.77577 1.58776 0.75 1.71538 0.75C1.843 0.75 1.96923 0.77577 2.08678 0.82568C2.20426 0.875562 2.3106 0.948498 2.39986 1.04003L2.39976 1.03993L2.22097 1.21467L2.39998 1.04016L10.9688 9.80791L1.03109 2.42415ZM1.03109 2.42415C1.03114 2.42419 1.03118 2.42423 1.03122 2.42428L8.92528 10.5002L1.03102 18.5763L1.031 18.5763C0.850682 18.7608 0.750374 19.0099 0.750374 19.2684C0.750374 19.5269 0.850683 19.7759 1.031 19.9605C1.21151 20.1452 1.45757 20.25 1.71538 20.25C1.97319 20.25 2.21925 20.1452 2.39976 19.9605L10.9688 11.1925L1.03109 2.42415ZM11.1771 10.1262C11.129 10.0076 11.0584 9.89943 10.969 9.80813V11.1923C11.0584 11.1009 11.129 10.9928 11.1771 10.8742C11.2253 10.7555 11.25 10.6284 11.25 10.5002C11.25 10.372 11.2253 10.2449 11.1771 10.1262Z" fill="white" stroke="white" stroke-width="0.5"/>
</svg>
