<svg width="24" height="24" viewBox="0 0 24 24" fill="none" xmlns="http://www.w3.org/2000/svg">
<g clip-path="url(#clip0_477_1572)">
<path d="M17.6128 15.516C19.0653 13.534 19.7158 11.0767 19.4343 8.63572C19.1528 6.19471 17.9599 3.95001 16.0945 2.35069C14.229 0.75138 11.8284 -0.0845965 9.37307 0.0100132C6.91771 0.104623 4.5886 1.12284 2.85172 2.86096C1.11485 4.59908 0.0982967 6.92891 0.00544392 9.38435C-0.0874088 11.8398 0.750285 14.2397 2.35093 16.1041C3.95158 17.9684 6.19714 19.1596 8.63835 19.4394C11.0796 19.7192 13.5364 19.0669 15.5173 17.613H15.5158C15.5608 17.673 15.6088 17.73 15.6628 17.7855L21.4378 23.5605C21.7191 23.842 22.1006 24.0002 22.4985 24.0003C22.8964 24.0004 23.2781 23.8425 23.5596 23.5612C23.841 23.28 23.9992 22.8984 23.9994 22.5005C23.9995 22.1026 23.8416 21.721 23.5603 21.4395L17.7853 15.6645C17.7317 15.6102 17.674 15.5601 17.6128 15.5145V15.516ZM17.9998 9.75C17.9998 10.8334 17.7864 11.9062 17.3718 12.9071C16.9572 13.9081 16.3495 14.8175 15.5835 15.5836C14.8174 16.3497 13.9079 16.9574 12.907 17.372C11.906 17.7866 10.8332 18 9.74982 18C8.66642 18 7.59362 17.7866 6.59268 17.372C5.59175 16.9574 4.68227 16.3497 3.91619 15.5836C3.15011 14.8175 2.54242 13.9081 2.12781 12.9071C1.71321 11.9062 1.49982 10.8334 1.49982 9.75C1.49982 7.56196 2.36902 5.46354 3.91619 3.91637C5.46337 2.36919 7.56178 1.5 9.74982 1.5C11.9379 1.5 14.0363 2.36919 15.5835 3.91637C17.1306 5.46354 17.9998 7.56196 17.9998 9.75Z" fill="white"/>
</g>
<defs>
<clipPath id="clip0_477_1572">
<rect width="24" height="24" fill="white"/>
</clipPath>
</defs>
</svg>
