<svg width="50" height="50" viewBox="0 0 50 50" fill="none" xmlns="http://www.w3.org/2000/svg">
<circle cx="25" cy="25" r="24.5" stroke="white" stroke-opacity="0.25"/>
<g clip-path="url(#clip0_368_657)">
<path d="M19 20.275V21.625H20.5V20.275H19ZM29.5 20.275V21.625H31V20.275H29.5ZM19 22.975V24.325H20.5V22.975H19ZM29.5 22.975V24.325H31V22.975H29.5ZM19 25.675V27.025H20.5V25.675H19ZM29.5 25.675V27.025H31V25.675H29.5ZM19 28.375V29.725H20.5V28.375H19ZM29.5 28.375V29.725H31V28.375H29.5Z" fill="white" fill-opacity="0.5"/>
<path d="M15.25 17.5C14.6533 17.5 14.081 17.7371 13.659 18.159C13.2371 18.581 13 19.1533 13 19.75V22C13 22.1989 13.079 22.3897 13.2197 22.5303C13.3603 22.671 13.5511 22.75 13.75 22.75C14.3467 22.75 14.919 22.9871 15.341 23.409C15.7629 23.831 16 24.4033 16 25C16 25.5967 15.7629 26.169 15.341 26.591C14.919 27.0129 14.3467 27.25 13.75 27.25C13.5511 27.25 13.3603 27.329 13.2197 27.4697C13.079 27.6103 13 27.8011 13 28V30.25C13 30.8467 13.2371 31.419 13.659 31.841C14.081 32.2629 14.6533 32.5 15.25 32.5H34.75C35.3467 32.5 35.919 32.2629 36.341 31.841C36.7629 31.419 37 30.8467 37 30.25V28C37 27.8011 36.921 27.6103 36.7803 27.4697C36.6397 27.329 36.4489 27.25 36.25 27.25C35.6533 27.25 35.081 27.0129 34.659 26.591C34.2371 26.169 34 25.5967 34 25C34 24.4033 34.2371 23.831 34.659 23.409C35.081 22.9871 35.6533 22.75 36.25 22.75C36.4489 22.75 36.6397 22.671 36.7803 22.5303C36.921 22.3897 37 22.1989 37 22V19.75C37 19.1533 36.7629 18.581 36.341 18.159C35.919 17.7371 35.3467 17.5 34.75 17.5H15.25ZM14.5 19.75C14.5 19.5511 14.579 19.3603 14.7197 19.2197C14.8603 19.079 15.0511 19 15.25 19H34.75C34.9489 19 35.1397 19.079 35.2803 19.2197C35.421 19.3603 35.5 19.5511 35.5 19.75V21.325C34.6523 21.4971 33.8901 21.957 33.3427 22.6268C32.7953 23.2966 32.4962 24.135 32.4962 25C32.4962 25.865 32.7953 26.7034 33.3427 27.3732C33.8901 28.043 34.6523 28.5029 35.5 28.675V30.25C35.5 30.4489 35.421 30.6397 35.2803 30.7803C35.1397 30.921 34.9489 31 34.75 31H15.25C15.0511 31 14.8603 30.921 14.7197 30.7803C14.579 30.6397 14.5 30.4489 14.5 30.25V28.675C15.3477 28.5029 16.1099 28.043 16.6573 27.3732C17.2047 26.7034 17.5038 25.865 17.5038 25C17.5038 24.135 17.2047 23.2966 16.6573 22.6268C16.1099 21.957 15.3477 21.4971 14.5 21.325V19.75Z" fill="white" fill-opacity="0.5"/>
</g>
<defs>
<clipPath id="clip0_368_657">
<rect width="24" height="24" fill="white" transform="translate(13 13)"/>
</clipPath>
</defs>
</svg>
