<svg width="50" height="50" viewBox="0 0 50 50" fill="none" xmlns="http://www.w3.org/2000/svg">
<circle cx="25" cy="25" r="24.5" stroke="white" stroke-opacity="0.25"/>
<g clip-path="url(#clip0_368_643)">
<path d="M21.2496 28.75C21.2496 29.0815 21.1179 29.3994 20.8835 29.6339C20.649 29.8683 20.3311 30 19.9996 30C19.6681 30 19.3501 29.8683 19.1157 29.6339C18.8813 29.3994 18.7496 29.0815 18.7496 28.75C18.7496 28.4185 18.8813 28.1005 19.1157 27.8661C19.3501 27.6317 19.6681 27.5 19.9996 27.5C20.3311 27.5 20.649 27.6317 20.8835 27.8661C21.1179 28.1005 21.2496 28.4185 21.2496 28.75ZM31.2496 28.75C31.2496 29.0815 31.1179 29.3994 30.8835 29.6339C30.649 29.8683 30.3311 30 29.9996 30C29.6681 30 29.3501 29.8683 29.1157 29.6339C28.8813 29.3994 28.7496 29.0815 28.7496 28.75C28.7496 28.4185 28.8813 28.1005 29.1157 27.8661C29.3501 27.6317 29.6681 27.5 29.9996 27.5C30.3311 27.5 30.649 27.6317 30.8835 27.8661C31.1179 28.1005 31.2496 28.4185 31.2496 28.75ZM23.7496 27.5C23.4181 27.5 23.1001 27.6317 22.8657 27.8661C22.6313 28.1005 22.4996 28.4185 22.4996 28.75C22.4996 29.0815 22.6313 29.3994 22.8657 29.6339C23.1001 29.8683 23.4181 30 23.7496 30H26.2496C26.5811 30 26.899 29.8683 27.1335 29.6339C27.3679 29.3994 27.4996 29.0815 27.4996 28.75C27.4996 28.4185 27.3679 28.1005 27.1335 27.8661C26.899 27.6317 26.5811 27.5 26.2496 27.5H23.7496ZM24.9996 20C22.6546 20 20.7171 20.1362 19.3096 20.2825C19.156 20.2985 19.0138 20.3709 18.9103 20.4856C18.8069 20.6003 18.7497 20.7493 18.7496 20.9037V25.3462C18.7497 25.5007 18.8069 25.6496 18.9103 25.7643C19.0138 25.879 19.156 25.9514 19.3096 25.9675C20.7171 26.1137 22.6546 26.25 24.9996 26.25C27.3446 26.25 29.2821 26.1137 30.6896 25.9675C30.8432 25.9514 30.9854 25.879 31.0888 25.7643C31.1922 25.6496 31.2495 25.5007 31.2496 25.3462V20.9037C31.2495 20.7493 31.1922 20.6003 31.0888 20.4856C30.9854 20.3709 30.8432 20.2985 30.6896 20.2825C28.799 20.0907 26.8998 19.9965 24.9996 20ZM24.9996 18.75C22.7033 18.75 20.8083 18.8837 19.4396 19.025C19.3565 19.0365 19.272 19.0312 19.191 19.0094C19.11 18.9876 19.0343 18.9497 18.9682 18.8981C18.9022 18.8464 18.8473 18.7819 18.8067 18.7085C18.7661 18.6352 18.7406 18.5544 18.7319 18.471C18.7232 18.3876 18.7313 18.3033 18.7559 18.2231C18.7804 18.1429 18.8208 18.0684 18.8747 18.0042C18.9286 17.94 18.9949 17.8872 19.0696 17.8491C19.1443 17.811 19.2259 17.7884 19.3096 17.7825C21.2001 17.5907 23.0993 17.4965 24.9996 17.5C27.3446 17.5 29.2821 17.6362 30.6896 17.7825C30.7732 17.7884 30.8548 17.811 30.9295 17.8491C31.0043 17.8872 31.0705 17.94 31.1244 18.0042C31.1783 18.0684 31.2188 18.1429 31.2433 18.2231C31.2678 18.3033 31.276 18.3876 31.2672 18.471C31.2585 18.5544 31.2331 18.6352 31.1925 18.7085C31.1519 18.7819 31.0969 18.8464 31.0309 18.8981C30.9649 18.9497 30.8891 18.9876 30.8081 19.0094C30.7272 19.0312 30.6426 19.0365 30.5596 19.025C28.7122 18.838 26.8564 18.7462 24.9996 18.75Z" fill="white" fill-opacity="0.5"/>
<path d="M33.75 25C34.0815 25 34.3995 24.8683 34.6339 24.6339C34.8683 24.3995 35 24.0816 35 23.75V21.25C35 20.9185 34.8683 20.6006 34.6339 20.3662C34.3995 20.1317 34.0815 20 33.75 20V18.3C33.75 16.815 32.6938 15.51 31.17 15.335C29.1213 15.1068 27.0613 14.995 25 15C22.375 15 20.26 15.17 18.83 15.335C17.3062 15.51 16.25 16.815 16.25 18.3V20C15.9185 20 15.6005 20.1317 15.3661 20.3662C15.1317 20.6006 15 20.9185 15 21.25V23.75C15 24.0816 15.1317 24.3995 15.3661 24.6339C15.6005 24.8683 15.9185 25 16.25 25V29.375C16.25 30.3975 16.7413 31.305 17.5 31.875V34.375C17.5 34.5408 17.5658 34.6998 17.6831 34.817C17.8003 34.9342 17.9592 35 18.125 35H20.625C20.7908 35 20.9497 34.9342 21.0669 34.817C21.1842 34.6998 21.25 34.5408 21.25 34.375V32.5H28.75V34.375C28.75 34.5408 28.8158 34.6998 28.9331 34.817C29.0503 34.9342 29.2092 35 29.375 35H31.875C32.0408 35 32.1997 34.9342 32.3169 34.817C32.4342 34.6998 32.5 34.5408 32.5 34.375V31.875C33.2588 31.305 33.75 30.3975 33.75 29.375V25ZM25 16.25C27.57 16.25 29.6375 16.4175 31.0275 16.5763C31.8725 16.6738 32.5 17.4013 32.5 18.3V29.375C32.5 29.8723 32.3025 30.3492 31.9508 30.7009C31.5992 31.0525 31.1223 31.25 30.625 31.25H19.375C18.8777 31.25 18.4008 31.0525 18.0492 30.7009C17.6975 30.3492 17.5 29.8723 17.5 29.375V18.3C17.5 17.4 18.1275 16.6738 18.9725 16.5763C20.9739 16.3537 22.9863 16.2448 25 16.25Z" fill="white" fill-opacity="0.5"/>
</g>
<defs>
<clipPath id="clip0_368_643">
<rect width="20" height="20" fill="white" transform="translate(15 15)"/>
</clipPath>
</defs>
</svg>
