<svg width="48" height="44" viewBox="0 0 48 44" fill="none" xmlns="http://www.w3.org/2000/svg">
<path d="M13.9378 11.938C14.0771 11.7983 14.2426 11.6875 14.4248 11.6119C14.6071 11.5362 14.8024 11.4973 14.9998 11.4973C15.1971 11.4973 15.3924 11.5362 15.5747 11.6119C15.7569 11.6875 15.9224 11.7983 16.0618 11.938L23.9998 19.879L31.9377 11.938C32.0772 11.7985 32.2428 11.6879 32.425 11.6124C32.6072 11.5369 32.8025 11.4981 32.9998 11.4981C33.197 11.4981 33.3923 11.5369 33.5745 11.6124C33.7567 11.6879 33.9223 11.7985 34.0618 11.938C34.2012 12.0775 34.3118 12.243 34.3873 12.4252C34.4628 12.6075 34.5016 12.8028 34.5016 13C34.5016 13.1972 34.4628 13.3925 34.3873 13.5747C34.3118 13.757 34.2012 13.9225 34.0618 14.062L26.1207 22L34.0618 29.938C34.2012 30.0775 34.3118 30.243 34.3873 30.4252C34.4628 30.6075 34.5016 30.8028 34.5016 31C34.5016 31.1972 34.4628 31.3925 34.3873 31.5747C34.3118 31.757 34.2012 31.9225 34.0618 32.062C33.9223 32.2015 33.7567 32.3121 33.5745 32.3876C33.3923 32.463 33.197 32.5019 32.9998 32.5019C32.8025 32.5019 32.6072 32.463 32.425 32.3876C32.2428 32.3121 32.0772 32.2015 31.9377 32.062L23.9998 24.121L16.0618 32.062C15.9223 32.2015 15.7567 32.3121 15.5745 32.3876C15.3923 32.463 15.197 32.5019 14.9998 32.5019C14.8025 32.5019 14.6072 32.463 14.425 32.3876C14.2428 32.3121 14.0772 32.2015 13.9378 32.062C13.7983 31.9225 13.6877 31.757 13.6122 31.5747C13.5367 31.3925 13.4979 31.1972 13.4979 31C13.4979 30.8028 13.5367 30.6075 13.6122 30.4252C13.6877 30.243 13.7983 30.0775 13.9378 29.938L21.8788 22L13.9378 14.062C13.7981 13.9227 13.6872 13.7571 13.6116 13.5749C13.536 13.3927 13.4971 13.1973 13.4971 13C13.4971 12.8027 13.536 12.6073 13.6116 12.4251C13.6872 12.2429 13.7981 12.0773 13.9378 11.938Z" fill="white"/>
</svg>
